<svg width="24" height="24" viewBox="0 0 24 24" fill="none" xmlns="http://www.w3.org/2000/svg">
<path d="M9.6 15.6001L11 14.1751L8.825 12.0001L11 9.82506L9.6 8.40006L6 12.0001L9.6 15.6001ZM14.4 15.6001L18 12.0001L14.4 8.40006L13 9.82506L15.175 12.0001L13 14.1751L14.4 15.6001ZM5 21.0001C4.45 21.0001 3.979 20.8041 3.587 20.4121C3.195 20.0201 2.99934 19.5494 3 19.0001V5.00006C3 4.45006 3.196 3.97906 3.588 3.58706C3.98 3.19506 4.45067 2.9994 5 3.00006H19C19.55 3.00006 20.021 3.19606 20.413 3.58806C20.805 3.98006 21.0007 4.45073 21 5.00006V19.0001C21 19.5501 20.804 20.0211 20.412 20.4131C20.02 20.8051 19.5493 21.0007 19 21.0001H5ZM5 19.0001H19V5.00006H5V19.0001Z" fill="#6B7280"/>
</svg>
