<svg width="25" height="24" viewBox="0 0 25 24" fill="none" xmlns="http://www.w3.org/2000/svg">
<path d="M4.79999 6.10352e-05C4.63124 6.10352e-05 4.49999 0.168811 4.49999 0.375061V2.47506H3.33749C2.94374 2.47506 2.64374 2.71881 2.64374 3.03756V4.50006H0.393738C0.187488 4.50006 0.0187378 4.63131 0.0187378 4.80006V5.70006C0.0187378 5.86881 0.187488 6.00006 0.393738 6.00006H2.64374V7.87506H0.393738C0.187488 7.87506 0.0187378 8.00631 0.0187378 8.17506V9.07506C0.0187378 9.24381 0.187488 9.37506 0.393738 9.37506H2.64374V11.2501H0.393738C0.187488 11.2501 0.0187378 11.3813 0.0187378 11.5501V12.4501C0.0187378 12.6188 0.187488 12.7501 0.393738 12.7501H2.64374V14.6251H0.393738C0.187488 14.6251 0.0187378 14.7563 0.0187378 14.9251V15.8251C0.0187378 15.9938 0.187488 16.1251 0.393738 16.1251H2.64374V18.0001H0.393738C0.187488 18.0001 0.0187378 18.1313 0.0187378 18.3001V19.2001C0.0187378 19.3688 0.187488 19.5001 0.393738 19.5001H2.64374V20.8126C2.64374 21.1313 2.96249 21.3751 3.35624 21.3751H4.53749V23.6251C4.53749 23.8313 4.66874 24.0001 4.83749 24.0001H5.73749C5.90624 24.0001 6.03749 23.8313 6.03749 23.6251V21.3751H7.91249V23.6251C7.91249 23.8313 8.04374 24.0001 8.21249 24.0001H9.11249C9.28124 24.0001 9.41249 23.8313 9.41249 23.6251V21.3751H11.2875V23.6251C11.2875 23.8313 11.4187 24.0001 11.5875 24.0001H12.4875C12.6562 24.0001 12.7875 23.8313 12.7875 23.6251V21.3751H14.6625V23.6251C14.6625 23.8313 14.7937 24.0001 14.9625 24.0001H15.8625C16.0312 24.0001 16.1625 23.8313 16.1625 23.6251V21.3751H18.0375V23.6251C18.0375 23.8313 18.1687 24.0001 18.3375 24.0001H19.2375C19.4062 24.0001 19.5375 23.8313 19.5375 23.6251V21.3751H20.7187C21.1125 21.3751 21.4312 21.1313 21.4312 20.8126V19.5001H23.6812C23.8875 19.5001 24.0562 19.3688 24.0562 19.2001V18.3001C24.0562 18.1313 23.8875 18.0001 23.6812 18.0001H21.4312V16.1251H23.6812C23.8875 16.1251 24.0562 15.9938 24.0562 15.8251V14.9251C24.0562 14.7563 23.8875 14.6251 23.6812 14.6251H21.4312V12.7501H23.6812C23.8875 12.7501 24.0562 12.6188 24.0562 12.4501V11.5501C24.0562 11.3813 23.8875 11.2501 23.6812 11.2501H21.4312V9.37506H23.6812C23.8875 9.37506 24.0562 9.24381 24.0562 9.07506V8.17506C24.0562 8.00631 23.8875 7.87506 23.6812 7.87506H21.4312V6.00006H23.6812C23.8875 6.00006 24.0562 5.86881 24.0562 5.70006V4.80006C24.0562 4.63131 23.8875 4.50006 23.6812 4.50006H21.4312V3.03756C21.4312 2.71881 21.1125 2.47506 20.7375 2.47506H19.575V0.375061C19.575 0.168811 19.4437 6.10352e-05 19.275 6.10352e-05H18.375C18.2062 6.10352e-05 18.075 0.168811 18.075 0.375061V2.47506H16.2V0.375061C16.2 0.168811 16.0687 6.10352e-05 15.9 6.10352e-05H15C14.8312 6.10352e-05 14.7 0.168811 14.7 0.375061V2.47506H12.825V0.375061C12.825 0.168811 12.6937 6.10352e-05 12.525 6.10352e-05H11.625C11.4562 6.10352e-05 11.325 0.168811 11.325 0.375061V2.47506H9.44999V0.375061C9.44999 0.168811 9.31874 6.10352e-05 9.14999 6.10352e-05H8.24999C8.08124 6.10352e-05 7.94999 0.168811 7.94999 0.375061V2.47506H6.07499V0.375061C6.07499 0.168811 5.94374 6.10352e-05 5.77499 6.10352e-05H4.79999ZM4.31249 3.75006C4.46167 3.75006 4.60475 3.80932 4.71024 3.91481C4.81572 4.0203 4.87499 4.16338 4.87499 4.31256C4.87499 4.46175 4.81572 4.60482 4.71024 4.71031C4.60475 4.8158 4.46167 4.87506 4.31249 4.87506C4.1633 4.87506 4.02023 4.8158 3.91474 4.71031C3.80925 4.60482 3.74999 4.46175 3.74999 4.31256C3.74999 4.16338 3.80925 4.0203 3.91474 3.91481C4.02023 3.80932 4.1633 3.75006 4.31249 3.75006ZM12 4.59381C14.7562 4.59381 17.1562 6.11256 18.4312 8.34381L15.9937 9.75006C15.2062 8.34381 13.7062 7.40631 12 7.40631C9.46874 7.40631 7.40624 9.46881 7.40624 12.0001C7.40624 14.5313 9.46874 16.5938 12 16.5938C13.7062 16.5938 15.2062 15.6563 15.9937 14.2688L18.4125 15.6938C17.1375 17.9063 14.7375 19.4063 12 19.4063C7.91249 19.4063 4.59374 16.0876 4.59374 12.0001C4.59374 7.91256 7.91249 4.59381 12 4.59381Z" fill="#6B7280"/>
</svg>
