<svg width="41" height="40" viewBox="0 0 41 40" fill="none" xmlns="http://www.w3.org/2000/svg">
<path d="M33 15C31.7116 15.0343 30.4621 14.5568 29.525 13.6719C28.5879 12.7871 28.0395 11.567 28 10.2787C28.0233 9.35897 28.3063 8.46454 28.8162 7.69874L31.9625 3.01749C32.0834 2.85654 32.24 2.72592 32.4201 2.63596C32.6002 2.54599 32.7987 2.49916 33 2.49916C33.2013 2.49916 33.3998 2.54599 33.5799 2.63596C33.76 2.72592 33.9166 2.85654 34.0375 3.01749L37.1437 7.6375C37.6747 8.4185 37.9717 9.33479 38 10.2787C37.9604 11.567 37.4121 12.7871 36.475 13.6719C35.5379 14.5568 34.2884 15.0343 33 15ZM33 5.95374L30.93 9.03249C30.6713 9.39869 30.5222 9.83094 30.5 10.2787C30.5725 10.8908 30.8671 11.455 31.3279 11.8644C31.7887 12.2738 32.3836 12.4999 33 12.4999C33.6164 12.4999 34.2113 12.2738 34.6721 11.8644C35.1329 11.455 35.4274 10.8908 35.5 10.2787C35.472 9.80667 35.3093 9.3525 35.0312 8.96999L33 5.95374ZM29.875 37.5H11.125C9.11131 37.5021 7.16867 36.756 5.67418 35.4064C4.17969 34.0568 3.23998 32.2 3.03749 30.1966C2.83499 28.1931 3.38415 26.1858 4.57835 24.5645C5.77256 22.9431 7.52661 21.8233 9.5 21.4225C10.0326 18.8997 11.4162 16.6367 13.4189 15.0127C15.4216 13.3887 17.9216 12.5025 20.5 12.5025C23.0784 12.5025 25.5784 13.3887 27.5811 15.0127C29.5838 16.6367 30.9674 18.8997 31.5 21.4225C33.4734 21.8233 35.2274 22.9431 36.4216 24.5645C37.6158 26.1858 38.165 28.1931 37.9625 30.1966C37.76 32.2 36.8203 34.0568 35.3258 35.4064C33.8313 36.756 31.8887 37.5021 29.875 37.5ZM20.5 15C18.3659 15.002 16.306 15.7839 14.7081 17.1986C13.1102 18.6132 12.0844 20.5631 11.8237 22.6812L11.6987 23.6962L10.68 23.7762C9.22906 23.8867 7.87753 24.5557 6.90976 25.6423C5.94199 26.729 5.43343 28.1487 5.49108 29.6027C5.54873 31.0567 6.16809 32.4316 7.21886 33.4383C8.26962 34.4449 9.66987 35.0047 11.125 35H29.875C31.3301 35.0047 32.7304 34.4449 33.7811 33.4383C34.8319 32.4316 35.4513 31.0567 35.5089 29.6027C35.5666 28.1487 35.058 26.729 34.0902 25.6423C33.1225 24.5557 31.7709 23.8867 30.32 23.7762L29.3012 23.6962L29.1775 22.6812C28.9163 20.5631 27.8902 18.6134 26.2921 17.1988C24.694 15.7842 22.6342 15.0022 20.5 15Z" fill="#4F46E5"/>
</svg>
