<svg width="40" height="40" viewBox="0 0 40 40" fill="none" xmlns="http://www.w3.org/2000/svg">
<path d="M20 11.6667C15.4 11.6667 11.6667 15.4 11.6667 20C11.6667 24.6 15.4 28.3333 20 28.3333C24.6 28.3333 28.3333 24.6 28.3333 20C28.3333 15.4 24.6 11.6667 20 11.6667ZM3.33333 21.6667H6.66667C7.58333 21.6667 8.33333 20.9167 8.33333 20C8.33333 19.0833 7.58333 18.3333 6.66667 18.3333H3.33333C2.41667 18.3333 1.66667 19.0833 1.66667 20C1.66667 20.9167 2.41667 21.6667 3.33333 21.6667ZM33.3333 21.6667H36.6667C37.5833 21.6667 38.3333 20.9167 38.3333 20C38.3333 19.0833 37.5833 18.3333 36.6667 18.3333H33.3333C32.4167 18.3333 31.6667 19.0833 31.6667 20C31.6667 20.9167 32.4167 21.6667 33.3333 21.6667ZM18.3333 3.33334V6.66667C18.3333 7.58334 19.0833 8.33334 20 8.33334C20.9167 8.33334 21.6667 7.58334 21.6667 6.66667V3.33334C21.6667 2.41667 20.9167 1.66667 20 1.66667C19.0833 1.66667 18.3333 2.41667 18.3333 3.33334ZM18.3333 33.3333V36.6667C18.3333 37.5833 19.0833 38.3333 20 38.3333C20.9167 38.3333 21.6667 37.5833 21.6667 36.6667V33.3333C21.6667 32.4167 20.9167 31.6667 20 31.6667C19.0833 31.6667 18.3333 32.4167 18.3333 33.3333ZM9.98333 7.63334C9.82914 7.47883 9.646 7.35625 9.44437 7.27262C9.24275 7.18898 9.02661 7.14593 8.80833 7.14593C8.59005 7.14593 8.37391 7.18898 8.17229 7.27262C7.97067 7.35625 7.78752 7.47883 7.63333 7.63334C7.47883 7.78753 7.35625 7.97067 7.27261 8.1723C7.18898 8.37392 7.14593 8.59006 7.14593 8.80834C7.14593 9.02662 7.18898 9.24276 7.27261 9.44438C7.35625 9.646 7.47883 9.82915 7.63333 9.98334L9.4 11.75C10.05 12.4 11.1167 12.4 11.75 11.75C12.3833 11.1 12.4 10.0333 11.75 9.4L9.98333 7.63334ZM30.6 28.25C30.4458 28.0955 30.2627 27.9729 30.061 27.8893C29.8594 27.8056 29.6433 27.7626 29.425 27.7626C29.2067 27.7626 28.9906 27.8056 28.789 27.8893C28.5873 27.9729 28.4042 28.0955 28.25 28.25C28.0955 28.4042 27.9729 28.5873 27.8893 28.789C27.8056 28.9906 27.7626 29.2067 27.7626 29.425C27.7626 29.6433 27.8056 29.8594 27.8893 30.061C27.9729 30.2627 28.0955 30.4458 28.25 30.6L30.0167 32.3667C30.6667 33.0167 31.7333 33.0167 32.3667 32.3667C32.5212 32.2125 32.6437 32.0293 32.7274 31.8277C32.811 31.6261 32.8541 31.41 32.8541 31.1917C32.8541 30.9734 32.811 30.7573 32.7274 30.5556C32.6437 30.354 32.5212 30.1709 32.3667 30.0167L30.6 28.25ZM32.3667 9.98334C32.5212 9.82915 32.6437 9.646 32.7274 9.44438C32.811 9.24276 32.8541 9.02662 32.8541 8.80834C32.8541 8.59006 32.811 8.37392 32.7274 8.1723C32.6437 7.97067 32.5212 7.78753 32.3667 7.63334C32.2125 7.47883 32.0293 7.35625 31.8277 7.27262C31.6261 7.18898 31.4099 7.14593 31.1917 7.14593C30.9734 7.14593 30.7572 7.18898 30.5556 7.27262C30.354 7.35625 30.1709 7.47883 30.0167 7.63334L28.25 9.4C27.6 10.05 27.6 11.1167 28.25 11.75C28.9 12.3833 29.9667 12.4 30.6 11.75L32.3667 9.98334ZM11.75 30.6C11.9045 30.4458 12.0271 30.2627 12.1107 30.061C12.1944 29.8594 12.2374 29.6433 12.2374 29.425C12.2374 29.2067 12.1944 28.9906 12.1107 28.789C12.0271 28.5873 11.9045 28.4042 11.75 28.25C11.5958 28.0955 11.4127 27.9729 11.211 27.8893C11.0094 27.8056 10.7933 27.7626 10.575 27.7626C10.3567 27.7626 10.1406 27.8056 9.93896 27.8893C9.73734 27.9729 9.55419 28.0955 9.4 28.25L7.63333 30.0167C6.98333 30.6667 6.98333 31.7333 7.63333 32.3667C8.28333 33 9.35 33.0167 9.98333 32.3667L11.75 30.6Z" fill="#4F46E5"/>
</svg>
