<svg width="24" height="24" viewBox="0 0 24 24" fill="none" xmlns="http://www.w3.org/2000/svg">
<path d="M20.998 3.00006V5.00006C20.998 6.85658 20.2605 8.63706 18.9477 9.94981C17.635 11.2626 15.8545 12.0001 13.998 12.0001H12.998V13.0001H17.998V20.0001C17.998 20.5305 17.7873 21.0392 17.4122 21.4143C17.0371 21.7893 16.5284 22.0001 15.998 22.0001H7.99799C7.46755 22.0001 6.95885 21.7893 6.58377 21.4143C6.2087 21.0392 5.99799 20.5305 5.99799 20.0001V13.0001H10.998V10.0001C10.998 8.14355 11.7355 6.36307 13.0482 5.05032C14.361 3.73756 16.1415 3.00006 17.998 3.00006H20.998ZM5.49799 2.00006C6.69796 1.99909 7.8806 2.28645 8.94634 2.83794C10.0121 3.38943 10.9297 4.18891 11.622 5.16906C10.5659 6.55796 9.99537 8.25529 9.99799 10.0001V11.0001H9.49799C7.50886 11.0001 5.60121 10.2099 4.19468 8.80336C2.78816 7.39684 1.99799 5.48919 1.99799 3.50006V2.00006H5.49799Z" fill="#6B7280"/>
</svg>
