<svg width="41" height="40" viewBox="0 0 41 40" fill="none" xmlns="http://www.w3.org/2000/svg">
<path d="M31.125 35C29.3441 35.0386 27.6205 34.3697 26.3318 33.1399C25.0432 31.91 24.2946 30.2195 24.25 28.4388C24.2763 27.1806 24.6548 25.9551 25.3425 24.9013L29.8625 18.1725C30.0017 17.9655 30.1896 17.7959 30.4098 17.6786C30.6299 17.5613 30.8756 17.5 31.125 17.5C31.3744 17.5 31.6201 17.5613 31.8402 17.6786C32.0604 17.7959 32.2483 17.9655 32.3875 18.1725L36.825 24.7688C37.559 25.8548 37.9668 27.1283 38 28.4388C37.9554 30.2195 37.2068 31.91 35.9182 33.1399C34.6295 34.3697 32.9059 35.0386 31.125 35ZM31.125 20.775L27.455 26.2338C27.018 26.8882 26.7737 27.6522 26.75 28.4388C26.8335 29.5419 27.3306 30.5729 28.1419 31.3251C28.9531 32.0773 30.0187 32.4953 31.125 32.4953C32.2313 32.4953 33.2969 32.0773 34.1081 31.3251C34.9194 30.5729 35.4165 29.5419 35.5 28.4388C35.471 27.6006 35.1972 26.7894 34.7125 26.105L31.125 20.775Z" fill="#4F46E5"/>
<path d="M6.75 17.5C7.44036 17.5 8 16.9404 8 16.25C8 15.5596 7.44036 15 6.75 15C6.05964 15 5.5 15.5596 5.5 16.25C5.5 16.9404 6.05964 17.5 6.75 17.5Z" fill="#4F46E5"/>
<path d="M14.25 25C14.9404 25 15.5 24.4404 15.5 23.75C15.5 23.0596 14.9404 22.5 14.25 22.5C13.5596 22.5 13 23.0596 13 23.75C13 24.4404 13.5596 25 14.25 25Z" fill="#4F46E5"/>
<path d="M19.25 32.5C19.9404 32.5 20.5 31.9404 20.5 31.25C20.5 30.5596 19.9404 30 19.25 30C18.5596 30 18 30.5596 18 31.25C18 31.9404 18.5596 32.5 19.25 32.5Z" fill="#4F46E5"/>
<path d="M21.75 20C22.4404 20 23 19.4404 23 18.75C23 18.0596 22.4404 17.5 21.75 17.5C21.0596 17.5 20.5 18.0596 20.5 18.75C20.5 19.4404 21.0596 20 21.75 20Z" fill="#4F46E5"/>
<path d="M16.75 15C17.4404 15 18 14.4404 18 13.75C18 13.0596 17.4404 12.5 16.75 12.5C16.0596 12.5 15.5 13.0596 15.5 13.75C15.5 14.4404 16.0596 15 16.75 15Z" fill="#4F46E5"/>
<path d="M34.25 15C34.9404 15 35.5 14.4404 35.5 13.75C35.5 13.0596 34.9404 12.5 34.25 12.5C33.5596 12.5 33 13.0596 33 13.75C33 14.4404 33.5596 15 34.25 15Z" fill="#4F46E5"/>
<path d="M11.75 35C12.4404 35 13 34.4404 13 33.75C13 33.0596 12.4404 32.5 11.75 32.5C11.0596 32.5 10.5 33.0596 10.5 33.75C10.5 34.4404 11.0596 35 11.75 35Z" fill="#4F46E5"/>
<path d="M4.25 27.5C4.94036 27.5 5.5 26.9404 5.5 26.25C5.5 25.5596 4.94036 25 4.25 25C3.55964 25 3 25.5596 3 26.25C3 26.9404 3.55964 27.5 4.25 27.5Z" fill="#4F46E5"/>
<path d="M3 7.5H38V10H3V7.5Z" fill="#4F46E5"/>
</svg>
