<svg width="40" height="40" viewBox="0 0 40 40" fill="none" xmlns="http://www.w3.org/2000/svg">
<path d="M21.875 24.385V10.7825H16.875V24.3825C15.1213 25.2925 13.9075 27.1075 13.9075 29.22C13.9291 30.6562 14.5147 32.0264 15.5379 33.0345C16.5611 34.0426 17.9398 34.6078 19.3763 34.6079C20.8127 34.6081 22.1915 34.0432 23.215 33.0354C24.2384 32.0275 24.8244 30.6575 24.8463 29.2212C24.8463 27.1087 23.6338 25.2937 21.8763 24.3862L21.875 24.385ZM25.625 6.56C25.625 3.115 22.82 0.309998 19.375 0.309998C15.93 0.309998 13.125 3.11625 13.125 6.56V22.4687C12.1885 23.326 11.4409 24.369 10.9298 25.5311C10.4187 26.6933 10.1552 27.9492 10.1563 29.2187C10.1563 34.3012 14.2938 38.44 19.3763 38.44C24.4588 38.44 28.595 34.3025 28.595 29.2187C28.595 26.6112 27.4975 24.1812 25.6263 22.4662V6.5625L25.625 6.56ZM26.0938 29.2225C26.0914 31.0034 25.3827 32.7106 24.1231 33.9695C22.8635 35.2284 21.1559 35.9362 19.375 35.9375C17.5945 35.9352 15.8875 35.2268 14.6285 33.9678C13.3694 32.7088 12.6611 31.0018 12.6588 29.2212C12.6588 26.9775 13.7788 24.9175 15.6288 23.6737V6.5625C15.6288 4.49625 17.3075 2.8125 19.375 2.8125C21.4425 2.8125 23.125 4.495 23.125 6.5625V23.675C24.0382 24.2836 24.787 25.1083 25.3049 26.0758C25.8228 27.0434 26.0938 28.1251 26.0938 29.2225ZM27.6063 10.7825L33.2313 14.03V7.5375L27.6063 10.7825Z" fill="#4F46E5"/>
</svg>
